<?xml version="1.0" standalone="no"?><!DOCTYPE svg PUBLIC "-//W3C//DTD SVG 1.1//EN" "http://www.w3.org/Graphics/SVG/1.1/DTD/svg11.dtd"><svg t="1543733766034" class="icon" style="" viewBox="0 0 1024 1024" version="1.1" xmlns="http://www.w3.org/2000/svg" p-id="4257" xmlns:xlink="http://www.w3.org/1999/xlink" width="128" height="128"><defs><style type="text/css"></style></defs><path d="M594.54464 590.09536c-2.56-2.56-6.4-2.56-8.96 0l-85.75488 85.76-153.58976-153.60512 85.76-85.76c2.56-2.56 2.56-6.4 0-8.96l-10.24-10.24c-2.56-2.56-6.4-2.56-8.96 0l-85.76 85.76-78.08-78.08c-3.84-3.84-11.52-3.84-15.36 0l-1.28 1.28-1.28 1.28-116.48 116.48512c-93.44 94.72-98.56 244.48-16.64 344.32l-96 96c-2.56 2.56-2.56 6.4 0 8.96l8.96 8.96c2.56 2.56 6.4 2.56 8.96 0l94.72-94.72c99.84 99.84 262.4 99.84 362.24 0l116.45952-116.48 1.28-1.28 1.28-1.28c3.84-3.84 3.84-11.52 0-15.36l-78.08-78.08 85.76-85.76c2.56-2.56 2.56-6.4 0-8.96l-8.95488-10.24z m-26.88 190.72l-108.77952 108.8c-89.6 89.6-235.52 89.6-326.4 0-89.6-89.6-89.6-235.52 0-326.4l108.8-108.80512 326.37952 326.40512zM1022.08512 26.24512l-8.96-8.96c-2.56-2.56-6.4-2.56-8.96 0l-96 96c-99.84-81.92-249.6-76.8-343.04 16.64l-116.49536 116.48-1.28 1.28-1.28 1.28c-3.84 3.84-3.84 11.52 0 15.36l346.89536 346.88c3.84 3.84 11.52 3.84 15.36 0l1.28-1.28 1.28-1.28 116.48-116.48c99.84-99.84 99.84-262.4 0-362.24l94.72-94.72c2.56-2.56 2.56-6.4 0-8.96z m-112.64 448l-108.8 108.8-326.41536-326.4 108.81536-108.8c89.6-89.6 235.52-89.6 326.4 0 89.6 89.6 89.6 236.8 0 326.4z" p-id="4258" fill="#4bae97"></path></svg>